<?xml version="1.0" encoding="UTF-8" standalone="no"?>
<svg
   xmlns:dc="http://purl.org/dc/elements/1.1/"
   xmlns:cc="http://creativecommons.org/ns#"
   xmlns:rdf="http://www.w3.org/1999/02/22-rdf-syntax-ns#"
   xmlns:svg="http://www.w3.org/2000/svg"
   xmlns="http://www.w3.org/2000/svg"
   xmlns:sodipodi="http://sodipodi.sourceforge.net/DTD/sodipodi-0.dtd"
   xmlns:inkscape="http://www.inkscape.org/namespaces/inkscape"
   version="1.1"
   id="Capa_1"
   x="0px"
   y="0px"
   viewBox="0 0 500 500"
   xml:space="preserve"
   sodipodi:docname="ARTES DEEP THINKING-25.svg"
   width="500"
   height="500"
   inkscape:version="1.0.2 (e86c870879, 2021-01-15)"><metadata
   id="metadata15"><rdf:RDF><cc:Work
       rdf:about=""><dc:format>image/svg+xml</dc:format><dc:type
         rdf:resource="http://purl.org/dc/dcmitype/StillImage" /><dc:title></dc:title></cc:Work></rdf:RDF></metadata><defs
   id="defs13" /><sodipodi:namedview
   pagecolor="#ffffff"
   bordercolor="#666666"
   borderopacity="1"
   objecttolerance="10"
   gridtolerance="10"
   guidetolerance="10"
   inkscape:pageopacity="0"
   inkscape:pageshadow="2"
   inkscape:window-width="2560"
   inkscape:window-height="1016"
   id="namedview11"
   showgrid="false"
   inkscape:zoom="0.49277948"
   inkscape:cx="617.22033"
   inkscape:cy="-30.810889"
   inkscape:window-x="1920"
   inkscape:window-y="34"
   inkscape:window-maximized="1"
   inkscape:current-layer="Capa_1" />
<style
   type="text/css"
   id="style2">
	.st0{fill:#0F1426;}
	.st1{fill:#1B9D72;}
	.st2{fill:#ED2660;}
	.st3{fill:#FFFFFF;}
</style>
<circle
   style="font-variation-settings:'wght' 400;fill:#131426;fill-opacity:1;fill-rule:evenodd;stroke-width:2.82239;stroke-linecap:round;stroke-linejoin:bevel"
   id="path842"
   cx="250"
   cy="250"
   r="250" /><g
   id="g8"
   transform="matrix(1.3392857,0,0,1.3392857,-281.16071,-129.75446)">
	<path
   class="st1"
   d="m 504.2,256.2 h -20.1 v -46.5 c 0,-2.4 -2,-4.4 -4.4,-4.4 h -36.8 v -27.9 c 0,-2.4 -2,-4.4 -4.4,-4.4 H 385 c -2.4,0 -4.4,2 -4.4,4.4 v 53.7 h -36.4 c -1.2,-1.5 -3,-2.4 -5.1,-2.4 -3.7,0 -6.7,3 -6.7,6.7 0,3.7 3,6.7 6.7,6.7 1.9,0 3.6,-0.8 4.8,-2.1 h 36.6 v 43.4 H 317 c -1.2,-1.2 -2.9,-2 -4.7,-2 -3.7,0 -6.7,3 -6.7,6.7 0,3.7 3,6.7 6.7,6.7 2.1,0 4,-1 5.2,-2.6 h 63 V 336 H 344 c -1.2,-1.3 -2.9,-2.2 -4.9,-2.2 -3.7,0 -6.7,3 -6.7,6.7 0,3.7 3,6.7 6.7,6.7 2,0 3.8,-0.9 5.1,-2.4 h 36.3 V 365 c -1.4,1.2 -2.3,3 -2.3,5 0,3.7 3,6.7 6.7,6.7 3.7,0 6.7,-3 6.7,-6.7 0,-2 -0.9,-3.8 -2.3,-5 V 181.8 H 434 v 27.9 c 0,2.4 2,4.4 4.4,4.4 h 36.8 v 42.2 h -40 c -2.4,0 -4.4,2 -4.4,4.4 0,2.4 2,4.4 4.4,4.4 h 44.9 c 0.3,0 0.7,0 1,-0.1 h 18.6 v 45 h -21.3 c -0.1,0 -0.2,0 -0.3,0 H 439 c -1.2,-1.2 -2.9,-2 -4.8,-2 -3.7,0 -6.7,3 -6.7,6.7 0,3.7 3,6.7 6.7,6.7 2.1,0 4,-1 5.2,-2.5 h 31.4 v 42.6 h -34.6 c -2.4,0 -4.4,2 -4.4,4.4 v 21.5 c -1.3,1.2 -2.1,2.9 -2.1,4.8 0,3.7 3,6.7 6.7,6.7 3.7,0 6.7,-3 6.7,-6.7 0,-2.1 -1,-3.9 -2.5,-5.2 v -16.7 h 34.6 c 2.4,0 4.4,-2 4.4,-4.4 v -47 h 24.6 c 2.4,0 4.4,-2 4.4,-4.4 v -53.8 c 0,-2.5 -1.9,-4.5 -4.4,-4.5 z"
   id="path4" />
	<path
   class="st1"
   d="m 449.3,344.7 c 1.2,1.4 3,2.4 5.1,2.4 3.7,0 6.7,-3 6.7,-6.7 0,-3.7 -3,-6.7 -6.7,-6.7 -1.9,0 -3.7,0.8 -4.9,2.2 h -33.3 v -43.8 h 58.3 c 1.2,1.2 2.9,2 4.8,2 3.7,0 6.7,-3 6.7,-6.7 0,-3.7 -3,-6.7 -6.7,-6.7 -2.1,0 -4,1 -5.2,2.5 h -57.9 v -43.8 h 30.6 c 1.2,1.6 3.1,2.6 5.2,2.6 3.7,0 6.7,-3 6.7,-6.7 0,-3.7 -3,-6.7 -6.7,-6.7 -1.8,0 -3.5,0.7 -4.7,2 h -31.1 v -23.5 c 0.8,-1.1 1.4,-2.5 1.4,-4 0,-3.7 -3,-6.7 -6.7,-6.7 -3.7,0 -6.7,3 -6.7,6.7 0,2.4 1.3,4.5 3.2,5.7 V 388 h -44.7 v -20 c 0,-2.4 -2,-4.4 -4.4,-4.4 h -34.6 v -44.4 h 34.9 c 2.4,0 4.4,-2 4.4,-4.4 0,-2.4 -2,-4.4 -4.4,-4.4 h -37.9 c -0.5,-0.2 -1,-0.3 -1.5,-0.3 h -25.7 v -45.8 h 26.8 c 0.3,0 0.6,0 0.9,-0.1 h 37.3 c 2.4,0 4.4,-2 4.4,-4.4 0,-2.4 -2,-4.4 -4.4,-4.4 H 324.7 V 215.2 H 356 c 2.4,0 4.4,-2 4.4,-4.4 v -30.7 c 1.5,-1.2 2.5,-3.1 2.5,-5.2 0,-3.7 -3,-6.7 -6.7,-6.7 -3.7,0 -6.7,3 -6.7,6.7 0,1.9 0.8,3.6 2,4.8 v 26.7 h -31.3 c -2.4,0 -4.4,2 -4.4,4.4 v 44.6 h -2.2 c -0.3,0 -0.6,0 -0.9,0.1 H 289 c -2.4,0 -4.4,2 -4.4,4.4 v 54.6 c 0,2.4 2,4.4 4.4,4.4 h 23.1 c 0.5,0.2 1,0.3 1.5,0.3 h 1.1 V 368 c 0,2.4 2,4.4 4.4,4.4 h 34.6 v 20.1 c 0,2.4 2,4.4 4.4,4.4 h 53.5 c 2.4,0 4.4,-2 4.4,-4.4 v -47.9 h 33.3 z"
   id="path6" />
</g>
</svg>
